<?xml version="1.0" standalone="no"?>
<!DOCTYPE svg PUBLIC "-//W3C//DTD SVG 20010904//EN"
 "http://www.w3.org/TR/2001/REC-SVG-20010904/DTD/svg10.dtd">
<svg version="1.0" xmlns="http://www.w3.org/2000/svg"
 width="87.000000pt" height="82.000000pt" viewBox="0 0 87.000000 82.000000"
 preserveAspectRatio="xMidYMid meet">

<g transform="translate(0.000000,82.000000) scale(0.100000,-0.100000)"
fill="#000000" stroke="none">
<path d="M674 701 c17 -19 17 -22 -10 -71 -31 -58 -112 -136 -181 -177 -86
-50 -171 -75 -280 -80 l-103 -6 0 -60 0 -60 60 7 c164 19 356 126 460 257 l38
48 15 -23 c49 -74 61 -173 31 -259 -22 -65 -93 -140 -162 -173 -46 -22 -70
-27 -137 -27 -63 0 -75 -2 -55 -10 14 -5 61 -10 105 -10 97 -1 167 27 234 94
54 55 78 101 90 175 15 97 -6 181 -64 260 -16 21 -20 35 -14 45 16 25 10 68
-10 79 -30 15 -36 12 -17 -9z"/>
<path d="M315 682 c-33 -16 -73 -44 -90 -62 l-30 -33 37 27 c94 70 266 73 351
6 l26 -20 15 22 c22 32 21 35 -26 60 -33 16 -65 23 -133 25 -83 4 -95 2 -150
-25z"/>
<path d="M538 545 c-83 -55 -250 -93 -359 -83 -49 5 -49 5 -49 -25 l0 -30 94
6 c141 9 269 60 335 131 30 32 27 32 -21 1z"/>
<path d="M563 411 c-86 -82 -211 -148 -345 -183 -88 -23 -88 -23 -88 -55 0
-29 3 -33 26 -33 41 0 173 49 247 92 79 46 160 123 205 196 18 29 31 52 29 52
-1 -1 -35 -32 -74 -69z"/>
</g>
</svg>
